<svg id="Layer_1" viewBox="0 0 24 24" xmlns="http://www.w3.org/2000/svg" data-name="Layer 1"><path d="m22.761 14.354c-.358-.42-.988-.47-1.408-.115-.013.01-.516.423-1.466.925-1.092-2.537-2.678-5.315-4.936-7.615.025-.176.047-.355.051-.548v-1.018c-.026-1.461-.773-2.473-2.001-2.831v-1.152c0-.552-.447-1-1-1s-1 .448-1 1v1.145c-1.239.348-1.974 1.351-2.001 2.855v1.018c.003.187.025.36.049.532-2.257 2.299-3.843 5.077-4.935 7.614-.95-.502-1.451-.913-1.463-.922-.418-.359-1.051-.312-1.409.108-.36.419-.312 1.05.108 1.409.064.055.755.63 2.022 1.279-.764 2.115-1.175 3.884-1.352 4.766-.108.542.243 1.068.784 1.177.528.11 1.071-.239 1.177-.784.162-.812.537-2.429 1.225-4.36 1.509.555 3.445 1.028 5.794 1.136v1.028c0 .553.447 1 1 1s1-.447 1-1v-1.028c2.349-.108 4.285-.581 5.794-1.136.688 1.932 1.063 3.548 1.225 4.36.106.545.649.894 1.177.784.541-.108.893-.635.784-1.177-.176-.882-.588-2.651-1.352-4.766 1.266-.649 1.957-1.224 2.022-1.279.419-.358.467-.985.11-1.405zm-11.762-8.336c.014-.775.249-1.013.994-1.018.738.005.993.26 1.008 1.01v.972c-.015.795-.231 1.014-.995 1.019-.767-.004-.993-.233-1.007-1v-.982zm2.001 10.954v-.972c0-.553-.447-1-1-1s-1 .447-1 1v.972c-2.051-.106-3.744-.525-5.06-1.005.939-2.185 2.265-4.553 4.108-6.567.496.381 1.148.596 1.958.6.803-.005 1.452-.219 1.946-.601 1.843 2.014 3.17 4.382 4.109 6.568-1.317.48-3.009.899-5.06 1.005z"/></svg>