<svg id="Layer_1" viewBox="0 0 24 24" xmlns="http://www.w3.org/2000/svg" data-name="Layer 1"><path d="m20.336 12c1.5-2.984 1.898-4.721 1.919-4.817.112-.506-.183-1.015-.678-1.169-.099-.032-1.919-.588-5.475-.863-1.901-2.55-3.258-3.746-3.453-3.913-.374-.318-.923-.318-1.297 0-.195.167-1.553 1.363-3.453 3.913-3.556.275-5.376.831-5.475.863-.495.154-.79.663-.678 1.169.021.097.419 1.834 1.919 4.817-1.5 2.984-1.898 4.721-1.919 4.818-.112.506.183 1.015.678 1.169.099.032 1.919.588 5.476.863 1.901 2.55 3.258 3.746 3.453 3.913.374.318.923.318 1.297 0 .195-.167 1.553-1.363 3.453-3.913 3.556-.275 5.376-.831 5.475-.863.495-.154.79-.663.678-1.169-.021-.097-.419-1.834-1.919-4.817zm-.321-4.309c-.177.513-.457 1.237-.859 2.129-.247-.429-.506-.869-.792-1.331-.256-.414-.506-.801-.752-1.177 1.035.124 1.847.264 2.404.379zm-3.353 6.768c-.572.924-1.116 1.733-1.628 2.453-.912.053-1.916.088-3.035.088s-2.123-.035-3.034-.088c-.512-.721-1.057-1.53-1.628-2.454-.55-.889-1.014-1.705-1.416-2.458.403-.753.866-1.57 1.416-2.459.572-.924 1.116-1.733 1.628-2.453.912-.053 1.916-.088 3.035-.088s2.123.035 3.035.088c.512.721 1.056 1.529 1.628 2.453.55.89 1.014 1.706 1.416 2.459-.403.753-.866 1.569-1.416 2.458zm-4.662-11.078c.361.368.862.914 1.459 1.639-.469-.012-.95-.02-1.459-.02s-.991.008-1.459.02c.597-.725 1.098-1.272 1.459-1.639zm-8.015 4.31c.557-.115 1.369-.254 2.404-.379-.247.375-.496.762-.752 1.177-.286.463-.545.903-.793 1.332-.402-.892-.682-1.617-.859-2.129zm0 8.617c.177-.513.457-1.237.859-2.13.247.429.506.868.792 1.331.256.415.506.802.753 1.178-1.035-.124-1.847-.264-2.404-.379zm8.015 4.311c-.361-.367-.862-.914-1.459-1.639.469.012.95.02 1.459.02s.991-.008 1.459-.02c-.597.725-1.098 1.272-1.459 1.639zm5.611-3.932c.247-.375.496-.762.752-1.177.286-.463.545-.903.793-1.332.402.892.682 1.617.859 2.129-.557.115-1.369.254-2.404.379z"/></svg>